<mxfile host="app.diagrams.net" agent="Mozilla/5.0 (Windows NT 10.0; Win64; x64) AppleWebKit/537.36 (KHTML, like Gecko) Chrome/130.0.0.0 Safari/537.36 Edg/130.0.0.0" version="24.8.4">
  <diagram name="Page-1" id="duSsaMoa01YogV4QSt7i">
    <mxGraphModel dx="576" dy="346" grid="1" gridSize="10" guides="1" tooltips="1" connect="1" arrows="1" fold="1" page="1" pageScale="1" pageWidth="850" pageHeight="1100" math="1" shadow="0">
      <root>
        <mxCell id="0" />
        <mxCell id="1" parent="0" />
        <mxCell id="WlxxYrdvcCOfqoK2jCG--1" value="&lt;font style=&quot;font-size: 16px;&quot;&gt;$$\times$$&lt;/font&gt;" style="ellipse;whiteSpace=wrap;html=1;" parent="1" vertex="1">
          <mxGeometry x="180" y="160" width="40" height="40" as="geometry" />
        </mxCell>
        <mxCell id="WlxxYrdvcCOfqoK2jCG--2" value="&lt;font style=&quot;font-size: 16px;&quot;&gt;$$\times$$&lt;/font&gt;" style="ellipse;whiteSpace=wrap;html=1;" parent="1" vertex="1">
          <mxGeometry x="400" y="160" width="40" height="40" as="geometry" />
        </mxCell>
        <mxCell id="WlxxYrdvcCOfqoK2jCG--3" value="&lt;font style=&quot;font-size: 16px;&quot;&gt;$$\times$$&lt;/font&gt;" style="ellipse;whiteSpace=wrap;html=1;" parent="1" vertex="1">
          <mxGeometry x="560" y="160" width="40" height="40" as="geometry" />
        </mxCell>
        <mxCell id="WlxxYrdvcCOfqoK2jCG--9" value="" style="edgeStyle=orthogonalEdgeStyle;rounded=0;orthogonalLoop=1;jettySize=auto;html=1;" parent="1" source="WlxxYrdvcCOfqoK2jCG--4" target="WlxxYrdvcCOfqoK2jCG--1" edge="1">
          <mxGeometry relative="1" as="geometry" />
        </mxCell>
        <mxCell id="WlxxYrdvcCOfqoK2jCG--4" value="$$\frac{1}{\sqrt{M}}e^{-j\hat{\gamma}_1(t)}$$" style="text;html=1;align=center;verticalAlign=middle;whiteSpace=wrap;rounded=0;" parent="1" vertex="1">
          <mxGeometry x="90" y="165" width="70" height="30" as="geometry" />
        </mxCell>
        <mxCell id="WlxxYrdvcCOfqoK2jCG--10" value="" style="edgeStyle=orthogonalEdgeStyle;rounded=0;orthogonalLoop=1;jettySize=auto;html=1;" parent="1" source="WlxxYrdvcCOfqoK2jCG--5" target="WlxxYrdvcCOfqoK2jCG--2" edge="1">
          <mxGeometry relative="1" as="geometry" />
        </mxCell>
        <mxCell id="WlxxYrdvcCOfqoK2jCG--5" value="$$\frac{1}{\sqrt{M}}e^{-j\hat{\gamma}_{M-1}(t)}$$" style="text;html=1;align=center;verticalAlign=middle;whiteSpace=wrap;rounded=0;" parent="1" vertex="1">
          <mxGeometry x="290" y="165" width="90" height="30" as="geometry" />
        </mxCell>
        <mxCell id="WlxxYrdvcCOfqoK2jCG--12" value="" style="edgeStyle=orthogonalEdgeStyle;rounded=0;orthogonalLoop=1;jettySize=auto;html=1;" parent="1" source="WlxxYrdvcCOfqoK2jCG--6" target="WlxxYrdvcCOfqoK2jCG--3" edge="1">
          <mxGeometry relative="1" as="geometry" />
        </mxCell>
        <mxCell id="WlxxYrdvcCOfqoK2jCG--6" value="$$\frac{1}{\sqrt{M}}e^{-j\hat{\gamma}_{M}(t)}$$" style="text;html=1;align=center;verticalAlign=middle;whiteSpace=wrap;rounded=0;" parent="1" vertex="1">
          <mxGeometry x="450" y="165" width="90" height="30" as="geometry" />
        </mxCell>
        <mxCell id="WlxxYrdvcCOfqoK2jCG--13" value="&lt;font style=&quot;font-size: 10px;&quot;&gt;$$\sum$$&lt;/font&gt;" style="ellipse;whiteSpace=wrap;html=1;aspect=fixed;fontSize=10;" parent="1" vertex="1">
          <mxGeometry x="320" y="280" width="40" height="40" as="geometry" />
        </mxCell>
        <mxCell id="WlxxYrdvcCOfqoK2jCG--14" value="" style="endArrow=classic;html=1;rounded=0;entryX=0;entryY=0;entryDx=0;entryDy=0;exitX=1;exitY=1;exitDx=0;exitDy=0;" parent="1" source="WlxxYrdvcCOfqoK2jCG--1" target="WlxxYrdvcCOfqoK2jCG--13" edge="1">
          <mxGeometry width="50" height="50" relative="1" as="geometry">
            <mxPoint x="140" y="270" as="sourcePoint" />
            <mxPoint x="190" y="220" as="targetPoint" />
          </mxGeometry>
        </mxCell>
        <mxCell id="WlxxYrdvcCOfqoK2jCG--16" value="" style="endArrow=classic;html=1;rounded=0;exitX=0.5;exitY=1;exitDx=0;exitDy=0;" parent="1" source="WlxxYrdvcCOfqoK2jCG--2" target="WlxxYrdvcCOfqoK2jCG--13" edge="1">
          <mxGeometry width="50" height="50" relative="1" as="geometry">
            <mxPoint x="140" y="270" as="sourcePoint" />
            <mxPoint x="190" y="220" as="targetPoint" />
          </mxGeometry>
        </mxCell>
        <mxCell id="WlxxYrdvcCOfqoK2jCG--17" value="" style="endArrow=classic;html=1;rounded=0;entryX=1.022;entryY=0.164;entryDx=0;entryDy=0;entryPerimeter=0;exitX=0.309;exitY=0.933;exitDx=0;exitDy=0;exitPerimeter=0;" parent="1" source="WlxxYrdvcCOfqoK2jCG--3" target="WlxxYrdvcCOfqoK2jCG--13" edge="1">
          <mxGeometry width="50" height="50" relative="1" as="geometry">
            <mxPoint x="140" y="270" as="sourcePoint" />
            <mxPoint x="190" y="220" as="targetPoint" />
          </mxGeometry>
        </mxCell>
        <mxCell id="WlxxYrdvcCOfqoK2jCG--18" value="$$\cdots$$" style="text;html=1;align=center;verticalAlign=middle;whiteSpace=wrap;rounded=0;fontSize=18;" parent="1" vertex="1">
          <mxGeometry x="240" y="165" width="40" height="30" as="geometry" />
        </mxCell>
        <mxCell id="WlxxYrdvcCOfqoK2jCG--20" style="edgeStyle=orthogonalEdgeStyle;rounded=0;orthogonalLoop=1;jettySize=auto;html=1;exitX=0.5;exitY=1;exitDx=0;exitDy=0;entryX=0.5;entryY=0;entryDx=0;entryDy=0;" parent="1" source="WlxxYrdvcCOfqoK2jCG--19" target="WlxxYrdvcCOfqoK2jCG--1" edge="1">
          <mxGeometry relative="1" as="geometry" />
        </mxCell>
        <mxCell id="WlxxYrdvcCOfqoK2jCG--19" value="$$s_1(t)$$" style="text;html=1;align=center;verticalAlign=middle;whiteSpace=wrap;rounded=0;" parent="1" vertex="1">
          <mxGeometry x="170" y="100" width="60" height="30" as="geometry" />
        </mxCell>
        <mxCell id="WlxxYrdvcCOfqoK2jCG--22" style="edgeStyle=orthogonalEdgeStyle;rounded=0;orthogonalLoop=1;jettySize=auto;html=1;exitX=0.5;exitY=1;exitDx=0;exitDy=0;entryX=0.5;entryY=0;entryDx=0;entryDy=0;" parent="1" source="WlxxYrdvcCOfqoK2jCG--21" target="WlxxYrdvcCOfqoK2jCG--2" edge="1">
          <mxGeometry relative="1" as="geometry" />
        </mxCell>
        <mxCell id="WlxxYrdvcCOfqoK2jCG--21" value="$$s_{M-1}(t)$$" style="text;html=1;align=center;verticalAlign=middle;whiteSpace=wrap;rounded=0;" parent="1" vertex="1">
          <mxGeometry x="390" y="100" width="60" height="30" as="geometry" />
        </mxCell>
        <mxCell id="WlxxYrdvcCOfqoK2jCG--24" style="edgeStyle=orthogonalEdgeStyle;rounded=0;orthogonalLoop=1;jettySize=auto;html=1;exitX=0.5;exitY=1;exitDx=0;exitDy=0;entryX=0.5;entryY=0;entryDx=0;entryDy=0;" parent="1" source="WlxxYrdvcCOfqoK2jCG--23" target="WlxxYrdvcCOfqoK2jCG--3" edge="1">
          <mxGeometry relative="1" as="geometry" />
        </mxCell>
        <mxCell id="WlxxYrdvcCOfqoK2jCG--23" value="$$s_{M}(t)$$" style="text;html=1;align=center;verticalAlign=middle;whiteSpace=wrap;rounded=0;" parent="1" vertex="1">
          <mxGeometry x="550" y="100" width="60" height="30" as="geometry" />
        </mxCell>
        <mxCell id="WlxxYrdvcCOfqoK2jCG--25" value="" style="endArrow=classic;html=1;rounded=0;exitX=0.5;exitY=1;exitDx=0;exitDy=0;entryX=0.5;entryY=0;entryDx=0;entryDy=0;" parent="1" source="WlxxYrdvcCOfqoK2jCG--13" target="WlxxYrdvcCOfqoK2jCG--26" edge="1">
          <mxGeometry width="50" height="50" relative="1" as="geometry">
            <mxPoint x="140" y="270" as="sourcePoint" />
            <mxPoint x="340" y="350" as="targetPoint" />
          </mxGeometry>
        </mxCell>
        <mxCell id="WlxxYrdvcCOfqoK2jCG--26" value="$$s(t)$$" style="text;html=1;align=center;verticalAlign=middle;whiteSpace=wrap;rounded=0;" parent="1" vertex="1">
          <mxGeometry x="310" y="350" width="60" height="30" as="geometry" />
        </mxCell>
      </root>
    </mxGraphModel>
  </diagram>
</mxfile>
